<svg xmlns="http://www.w3.org/2000/svg" version="1.1" xmlns:xlink="http://www.w3.org/1999/xlink" xmlns:svgjs="http://svgjs.dev/svgjs" viewBox="0 0 800 800"><defs><linearGradient x1="50%" y1="0%" x2="50%" y2="100%" id="ffflurry-grad" gradientTransform="rotate(270)"><stop stop-color="hsl(238, 82%, 13%)" stop-opacity="1" offset="0%"></stop><stop stop-color="#0288D1" stop-opacity="1" offset="45%"></stop><stop stop-color="#81D4FA" stop-opacity="1" offset="100%"></stop></linearGradient></defs><rect width="100%" height="100%" fill="hsl(238, 82%, 13%)"></rect><g fill="url(#ffflurry-grad)"><rect width="342" height="3" x="393" y="645.5" rx="1.5" transform="rotate(45, 564, 647)" opacity="0.90"></rect><rect width="555" height="3" x="219.5" y="374.5" rx="1.5" transform="rotate(45, 497, 376)" opacity="0.26"></rect><rect width="232" height="3" x="41" y="747.5" rx="1.5" transform="rotate(45, 157, 749)" opacity="0.78"></rect><rect width="328" height="3" x="-121" y="529.5" rx="1.5" transform="rotate(45, 43, 531)" opacity="0.50"></rect><rect width="63" height="3" x="629.5" y="655.5" rx="1.5" transform="rotate(45, 661, 657)" opacity="0.87"></rect><rect width="263" height="3" x="23.5" y="356.5" rx="1.5" transform="rotate(45, 155, 358)" opacity="0.38"></rect><rect width="401" height="3" x="-135.5" y="393.5" rx="1.5" transform="rotate(45, 65, 395)" opacity="0.35"></rect><rect width="53" height="3" x="589.5" y="479.5" rx="1.5" transform="rotate(45, 616, 481)" opacity="0.26"></rect><rect width="411" height="3" x="523.5" y="432.5" rx="1.5" transform="rotate(45, 729, 434)" opacity="0.30"></rect><rect width="298" height="3" x="588" y="312.5" rx="1.5" transform="rotate(45, 737, 314)" opacity="0.91"></rect><rect width="450" height="3" x="324" y="721.5" rx="1.5" transform="rotate(45, 549, 723)" opacity="0.50"></rect><rect width="143" height="3" x="678.5" y="767.5" rx="1.5" transform="rotate(45, 750, 769)" opacity="0.90"></rect><rect width="59" height="3" x="470.5" y="670.5" rx="1.5" transform="rotate(45, 500, 672)" opacity="0.15"></rect><rect width="52" height="3" x="749" y="707.5" rx="1.5" transform="rotate(45, 775, 709)" opacity="0.35"></rect><rect width="482" height="3" x="-2" y="217.5" rx="1.5" transform="rotate(45, 239, 219)" opacity="0.13"></rect><rect width="100" height="3" x="176" y="311.5" rx="1.5" transform="rotate(45, 226, 313)" opacity="0.68"></rect><rect width="51" height="3" x="157.5" y="49.5" rx="1.5" transform="rotate(45, 183, 51)" opacity="0.63"></rect><rect width="91" height="3" x="568.5" y="573.5" rx="1.5" transform="rotate(45, 614, 575)" opacity="0.11"></rect><rect width="531" height="3" x="336.5" y="256.5" rx="1.5" transform="rotate(45, 602, 258)" opacity="0.38"></rect><rect width="424" height="3" x="427" y="73.5" rx="1.5" transform="rotate(45, 639, 75)" opacity="0.99"></rect><rect width="486" height="3" x="-190" y="609.5" rx="1.5" transform="rotate(45, 53, 611)" opacity="0.12"></rect><rect width="426" height="3" x="144" y="217.5" rx="1.5" transform="rotate(45, 357, 219)" opacity="0.65"></rect><rect width="281" height="3" x="366.5" y="270.5" rx="1.5" transform="rotate(45, 507, 272)" opacity="0.31"></rect><rect width="237" height="3" x="618.5" y="181.5" rx="1.5" transform="rotate(45, 737, 183)" opacity="0.51"></rect><rect width="795" height="3" x="344.5" y="55.5" rx="1.5" transform="rotate(45, 742, 57)" opacity="0.21"></rect><rect width="292" height="3" x="324" y="598.5" rx="1.5" transform="rotate(45, 470, 600)" opacity="0.17"></rect><rect width="421" height="3" x="467.5" y="751.5" rx="1.5" transform="rotate(45, 678, 753)" opacity="0.40"></rect><rect width="179" height="3" x="45.5" y="440.5" rx="1.5" transform="rotate(45, 135, 442)" opacity="0.16"></rect><rect width="176" height="3" x="426" y="560.5" rx="1.5" transform="rotate(45, 514, 562)" opacity="0.70"></rect><rect width="544" height="3" x="55" y="353.5" rx="1.5" transform="rotate(45, 327, 355)" opacity="0.89"></rect><rect width="56" height="3" x="364" y="538.5" rx="1.5" transform="rotate(45, 392, 540)" opacity="0.49"></rect><rect width="387" height="3" x="200.5" y="436.5" rx="1.5" transform="rotate(45, 394, 438)" opacity="0.66"></rect><rect width="39" height="3" x="385.5" y="362.5" rx="1.5" transform="rotate(45, 405, 364)" opacity="0.64"></rect><rect width="252" height="3" x="490" y="667.5" rx="1.5" transform="rotate(45, 616, 669)" opacity="0.34"></rect><rect width="33" height="3" x="519.5" y="474.5" rx="1.5" transform="rotate(45, 536, 476)" opacity="0.60"></rect><rect width="73" height="3" x="225.5" y="37.5" rx="1.5" transform="rotate(45, 262, 39)" opacity="0.62"></rect><rect width="388" height="3" x="-153" y="460.5" rx="1.5" transform="rotate(45, 41, 462)" opacity="0.62"></rect><rect width="174" height="3" x="224" y="92.5" rx="1.5" transform="rotate(45, 311, 94)" opacity="0.25"></rect><rect width="733" height="3" x="-293.5" y="176.5" rx="1.5" transform="rotate(45, 73, 178)" opacity="0.42"></rect><rect width="295" height="3" x="623.5" y="483.5" rx="1.5" transform="rotate(45, 771, 485)" opacity="0.60"></rect><rect width="221" height="3" x="445.5" y="37.5" rx="1.5" transform="rotate(45, 556, 39)" opacity="0.48"></rect><rect width="661" height="3" x="-201.5" y="261.5" rx="1.5" transform="rotate(45, 129, 263)" opacity="0.19"></rect><rect width="368" height="3" x="384" y="421.5" rx="1.5" transform="rotate(45, 568, 423)" opacity="0.18"></rect><rect width="365" height="3" x="-127.5" y="725.5" rx="1.5" transform="rotate(45, 55, 727)" opacity="0.92"></rect><rect width="174" height="3" x="351" y="661.5" rx="1.5" transform="rotate(45, 438, 663)" opacity="0.13"></rect><rect width="214" height="3" x="-68" y="303.5" rx="1.5" transform="rotate(45, 39, 305)" opacity="0.88"></rect><rect width="245" height="3" x="335.5" y="58.5" rx="1.5" transform="rotate(45, 458, 60)" opacity="0.10"></rect><rect width="545" height="3" x="490.5" y="596.5" rx="1.5" transform="rotate(45, 763, 598)" opacity="0.54"></rect><rect width="249" height="3" x="350.5" y="761.5" rx="1.5" transform="rotate(45, 475, 763)" opacity="0.54"></rect><rect width="109" height="3" x="552.5" y="344.5" rx="1.5" transform="rotate(45, 607, 346)" opacity="0.18"></rect><rect width="556" height="3" x="91" y="137.5" rx="1.5" transform="rotate(45, 369, 139)" opacity="0.09"></rect><rect width="332" height="3" x="47" y="141.5" rx="1.5" transform="rotate(45, 213, 143)" opacity="0.38"></rect><rect width="218" height="3" x="495" y="759.5" rx="1.5" transform="rotate(45, 604, 761)" opacity="0.90"></rect><rect width="405" height="3" x="211.5" y="287.5" rx="1.5" transform="rotate(45, 414, 289)" opacity="0.64"></rect><rect width="610" height="3" x="322" y="180.5" rx="1.5" transform="rotate(45, 627, 182)" opacity="0.80"></rect><rect width="450" height="3" x="26" y="395.5" rx="1.5" transform="rotate(45, 251, 397)" opacity="0.94"></rect><rect width="325" height="3" x="310.5" y="479.5" rx="1.5" transform="rotate(45, 473, 481)" opacity="0.49"></rect><rect width="379" height="3" x="192.5" y="672.5" rx="1.5" transform="rotate(45, 382, 674)" opacity="0.96"></rect><rect width="396" height="3" x="148" y="755.5" rx="1.5" transform="rotate(45, 346, 757)" opacity="0.29"></rect><rect width="354" height="3" x="-62" y="58.5" rx="1.5" transform="rotate(45, 115, 60)" opacity="0.26"></rect><rect width="303" height="3" x="9.5" y="623.5" rx="1.5" transform="rotate(45, 161, 625)" opacity="0.53"></rect><rect width="161" height="3" x="582.5" y="410.5" rx="1.5" transform="rotate(45, 663, 412)" opacity="0.95"></rect><rect width="191" height="3" x="585.5" y="594.5" rx="1.5" transform="rotate(45, 681, 596)" opacity="0.67"></rect><rect width="240" height="3" x="184" y="274.5" rx="1.5" transform="rotate(45, 304, 276)" opacity="0.43"></rect><rect width="333" height="3" x="-18.5" y="529.5" rx="1.5" transform="rotate(45, 148, 531)" opacity="0.21"></rect><rect width="514" height="3" x="42" y="631.5" rx="1.5" transform="rotate(45, 299, 633)" opacity="0.68"></rect><rect width="193" height="3" x="107.5" y="469.5" rx="1.5" transform="rotate(45, 204, 471)" opacity="0.30"></rect><rect width="52" height="3" x="501" y="140.5" rx="1.5" transform="rotate(45, 527, 142)" opacity="0.30"></rect><rect width="145" height="3" x="499.5" y="539.5" rx="1.5" transform="rotate(45, 572, 541)" opacity="0.70"></rect><rect width="546" height="3" x="-29" y="721.5" rx="1.5" transform="rotate(45, 244, 723)" opacity="0.98"></rect><rect width="232" height="3" x="333" y="186.5" rx="1.5" transform="rotate(45, 449, 188)" opacity="0.82"></rect><rect width="653" height="3" x="-29.5" y="468.5" rx="1.5" transform="rotate(45, 297, 470)" opacity="0.63"></rect><rect width="120" height="3" x="631" y="525.5" rx="1.5" transform="rotate(45, 691, 527)" opacity="1.00"></rect><rect width="63" height="3" x="6.5" y="65.5" rx="1.5" transform="rotate(45, 38, 67)" opacity="0.51"></rect><rect width="458" height="3" x="43" y="553.5" rx="1.5" transform="rotate(45, 272, 555)" opacity="0.46"></rect><rect width="379" height="3" x="532.5" y="673.5" rx="1.5" transform="rotate(45, 722, 675)" opacity="0.88"></rect><rect width="47" height="3" x="350.5" y="34.5" rx="1.5" transform="rotate(45, 374, 36)" opacity="0.54"></rect></g></svg>