<svg preserveAspectRatio="none" viewBox="0 0 889 231" fill="none" xmlns="http://www.w3.org/2000/svg">
<path d="M130.034 103.314L101.163 108.428C99.956 104.734 98.0384 101.219 95.4105 97.8807C92.8537 94.5426 89.3736 91.8082 84.9702 89.6776C80.5668 87.5469 75.0625 86.4815 68.4574 86.4815C59.4375 86.4815 51.9091 88.5057 45.8722 92.554C39.8352 96.5312 36.8168 101.68 36.8168 108.001C36.8168 113.47 38.8409 117.874 42.8892 121.212C46.9375 124.55 53.4716 127.284 62.4915 129.415L88.4858 135.381C103.543 138.861 114.764 144.223 122.151 151.467C129.537 158.712 133.23 168.122 133.23 179.699C133.23 189.5 130.389 198.236 124.707 205.906C119.097 213.506 111.249 219.472 101.163 223.804C91.1492 228.136 79.5369 230.303 66.3267 230.303C48.0028 230.303 33.0526 226.396 21.4759 218.584C9.89915 210.7 2.79688 199.514 0.169034 185.026L30.9574 180.338C32.875 188.364 36.8168 194.436 42.7827 198.555C48.7486 202.604 56.5256 204.628 66.1136 204.628C76.554 204.628 84.8991 202.462 91.1491 198.129C97.3991 193.726 100.524 188.364 100.524 182.043C100.524 176.929 98.6065 172.632 94.7713 169.152C91.0071 165.672 85.2188 163.044 77.4062 161.268L49.7074 155.196C34.4375 151.716 23.1449 146.176 15.8295 138.577C8.58523 130.977 4.96307 121.354 4.96307 109.706C4.96307 100.047 7.66193 91.5952 13.0597 84.3508C18.4574 77.1065 25.9148 71.4602 35.4318 67.4119C44.9489 63.2926 55.8509 61.233 68.1378 61.233C85.8224 61.233 99.7429 65.0682 109.899 72.7386C120.055 80.3381 126.767 90.5298 130.034 103.314ZM244.638 63.3636V88.9318H155.256V63.3636H244.638ZM179.226 24.1591H211.08V178.953C211.08 185.132 212.003 189.784 213.85 192.909C215.696 195.963 218.076 198.058 220.988 199.195C223.971 200.26 227.202 200.793 230.682 200.793C233.239 200.793 235.476 200.615 237.394 200.26C239.311 199.905 240.803 199.621 241.868 199.408L247.621 225.722C245.775 226.432 243.147 227.142 239.738 227.852C236.328 228.634 232.067 229.06 226.953 229.131C218.573 229.273 210.76 227.781 203.516 224.656C196.272 221.531 190.412 216.702 185.938 210.168C181.463 203.634 179.226 195.43 179.226 185.558V24.1591ZM279.874 227V63.3636H310.663V89.3579H312.367C315.35 80.5511 320.606 73.6264 328.134 68.5838C335.734 63.4702 344.327 60.9133 353.915 60.9133C355.904 60.9133 358.248 60.9844 360.947 61.1264C363.717 61.2685 365.883 61.446 367.445 61.6591V92.1278C366.167 91.7727 363.894 91.3821 360.627 90.956C357.36 90.4588 354.093 90.2102 350.826 90.2102C343.298 90.2102 336.586 91.8082 330.691 95.0043C324.867 98.1293 320.251 102.497 316.842 108.108C313.433 113.648 311.728 119.969 311.728 127.071V227H279.874ZM395.011 227V63.3636H426.865V227H395.011ZM411.098 38.1151C405.558 38.1151 400.799 36.2685 396.822 32.5753C392.916 28.8111 390.963 24.3366 390.963 19.152C390.963 13.8963 392.916 9.42187 396.822 5.72868C400.799 1.96448 405.558 0.0823815 411.098 0.0823815C416.637 0.0823815 421.36 1.96448 425.267 5.72868C429.244 9.42187 431.233 13.8963 431.233 19.152C431.233 24.3366 429.244 28.8111 425.267 32.5753C421.36 36.2685 416.637 38.1151 411.098 38.1151ZM469.718 227V63.3636H500.293V89.9972H502.317C505.727 80.9773 511.302 73.946 519.043 68.9034C526.785 63.7898 536.053 61.233 546.849 61.233C557.786 61.233 566.948 63.7898 574.335 68.9034C581.792 74.017 587.296 81.0483 590.847 89.9972H592.552C596.458 81.2614 602.673 74.3011 611.195 69.1165C619.718 63.8608 629.874 61.233 641.664 61.233C656.508 61.233 668.617 65.8849 677.992 75.1889C687.438 84.4929 692.161 98.5199 692.161 117.27V227H660.308V120.253C660.308 109.173 657.289 101.148 651.252 96.1761C645.215 91.2045 638.006 88.7188 629.626 88.7188C619.256 88.7188 611.195 91.9148 605.442 98.3068C599.69 104.628 596.813 112.76 596.813 122.703V227H565.066V118.229C565.066 109.351 562.296 102.213 556.756 96.8153C551.217 91.4176 544.008 88.7188 535.13 88.7188C529.093 88.7188 523.518 90.3168 518.404 93.5128C513.362 96.6378 509.278 101.006 506.153 106.616C503.099 112.227 501.572 118.726 501.572 126.112V227H469.718ZM734.855 227V63.3636H766.708V227H734.855ZM750.941 38.1151C745.402 38.1151 740.643 36.2685 736.666 32.5753C732.76 28.8111 730.806 24.3366 730.806 19.152C730.806 13.8963 732.76 9.42187 736.666 5.72868C740.643 1.96448 745.402 0.0823815 750.941 0.0823815C756.481 0.0823815 761.204 1.96448 765.11 5.72868C769.088 9.42187 771.076 13.8963 771.076 19.152C771.076 24.3366 769.088 28.8111 765.11 32.5753C761.204 36.2685 756.481 38.1151 750.941 38.1151ZM885.947 63.3636V88.9318H796.565V63.3636H885.947ZM820.535 24.1591H852.388V178.953C852.388 185.132 853.312 189.784 855.158 192.909C857.005 195.963 859.384 198.058 862.296 199.195C865.279 200.26 868.511 200.793 871.991 200.793C874.548 200.793 876.785 200.615 878.702 200.26C880.62 199.905 882.112 199.621 883.177 199.408L888.93 225.722C887.083 226.432 884.455 227.142 881.046 227.852C877.637 228.634 873.376 229.06 868.262 229.131C859.881 229.273 852.069 227.781 844.825 224.656C837.58 221.531 831.721 216.702 827.246 210.168C822.772 203.634 820.535 195.43 820.535 185.558V24.1591Z" fill="#B83DD1"/>
</svg>
