<svg width="791" height="266" viewBox="0 0 791 266" fill="none" xmlns="http://www.w3.org/2000/svg">
<path d="M190.05 266H0.0500006V233.6L13.25 232.4C20.9833 231.6 24.85 227.867 24.85 221.2V35.2L2.05 34V-8.58307e-06H98.45V32.4L85.25 33.6C77.5167 34.4 73.65 38.6667 73.65 46.4V224.8H140.05C143.783 224.8 146.183 223.867 147.25 222C148.583 219.867 149.25 216.533 149.25 212V184L190.05 186.8V266ZM239.694 219.2V35.2L216.894 34V-8.58307e-06H313.694V32.4L300.494 33.6C292.76 34.4 288.894 38.6667 288.894 46.4V230.8L311.694 232V266H214.894V233.6L228.094 232.4C232.094 231.867 235.027 230.8 236.894 229.2C238.76 227.333 239.694 224 239.694 219.2ZM405.15 47.6L458.75 208.8H460.75L516.75 35.6L492.35 34V-8.58307e-06H584.35V32.4L571.15 33.6C567.683 33.8667 565.15 34.9333 563.55 36.8C561.95 38.4 560.35 41.3333 558.75 45.6L483.15 266H431.15L349.55 35.2L326.75 34V-8.58307e-06H429.95V32.4L416.75 33.6C408.483 34.1333 404.35 37.3333 404.35 43.2C404.35 44.5333 404.617 46 405.15 47.6ZM790.069 266H600.069V233.6L613.269 232.4C621.002 231.6 624.869 227.867 624.869 221.2V35.2L602.069 34V-8.58307e-06H785.269V66.4L744.469 69.2V53.2C744.469 48.6667 743.802 45.4667 742.469 43.6C741.135 41.7333 737.935 40.8 732.869 40.8H673.669V109.2H766.069V150H673.669V224.8H738.069C742.869 224.8 745.935 223.867 747.269 222C748.602 219.867 749.269 216.533 749.269 212V192L790.069 194.8V266Z" fill="white"/>
</svg>
