<?xml version="1.0" standalone="no"?>
<!DOCTYPE svg PUBLIC "-//W3C//DTD SVG 20010904//EN"
 "http://www.w3.org/TR/2001/REC-SVG-20010904/DTD/svg10.dtd">
<svg version="1.0" xmlns="http://www.w3.org/2000/svg"
 width="260.000000pt" height="260.000000pt" viewBox="0 0 260.000000 260.000000"
 preserveAspectRatio="xMidYMid meet">
<metadata>
Created by potrace 1.14, written by Peter Selinger 2001-2017
</metadata>
<g transform="translate(0.000000,260.000000) scale(0.100000,-0.100000)"
fill="#000000" stroke="none">
<path d="M1005 2392 c-51 -9 -165 -46 -165 -53 0 -5 -7 -9 -15 -9 -8 0 -15 -4
-15 -10 0 -5 -4 -10 -10 -10 -5 0 -19 -8 -31 -17 -24 -21 -148 -143 -144 -143
2 0 -87 -94 -214 -225 -37 -38 -75 -81 -84 -95 -18 -29 -15 -71 9 -108 31 -47
67 -53 311 -52 l226 1 81 86 c45 47 126 132 181 188 99 102 322 336 367 385
13 14 35 35 50 46 l27 21 -277 -1 c-152 0 -286 -2 -297 -4z"/>
<path d="M1605 2341 c-18 -8 -107 -95 -217 -212 -150 -162 -253 -271 -325
-345 -44 -46 -78 -86 -75 -88 10 -5 34 0 125 27 45 14 121 37 169 52 49 15 94
28 100 29 7 2 20 5 28 8 8 3 35 11 60 18 25 7 65 19 90 27 25 8 50 16 55 17
29 7 102 28 115 33 16 6 29 10 58 17 9 3 17 5 17 6 0 1 7 3 15 5 12 2 85 22
110 30 37 12 82 45 60 45 -6 0 -9 4 -6 9 3 4 -32 47 -78 95 -46 47 -82 86 -79
86 2 0 -30 34 -70 75 -77 77 -100 87 -152 66z"/>
<path d="M275 1661 c10 -57 25 -77 159 -216 75 -76 136 -141 136 -142 0 -12
237 -236 263 -249 18 -9 34 -20 37 -23 4 -6 64 -27 110 -38 59 -15 626 -23
648 -9 6 4 13 2 17 -4 4 -7 12 -7 24 0 10 5 21 7 23 4 11 -10 48 -12 48 -3 0
6 4 7 10 4 16 -10 110 -12 110 -2 0 4 5 5 11 2 15 -10 89 -12 89 -3 0 4 6 5
13 3 6 -3 62 -7 122 -8 112 -3 141 -12 178 -51 12 -14 21 -16 28 -9 27 27 -31
98 -318 390 -28 29 -50 53 -47 53 11 0 -160 160 -176 165 -11 4 -20 10 -20 14
0 4 -19 14 -42 21 -24 8 -45 17 -48 20 -21 24 -158 30 -688 30 -608 0 -601 0
-655 54 -33 33 -38 33 -32 -3z"/>
<path d="M1714 917 c-8 -5 -38 -33 -67 -63 -28 -31 -91 -97 -139 -147 -49 -50
-88 -92 -88 -93 0 -2 -31 -36 -70 -76 -38 -40 -106 -111 -150 -157 -44 -47
-80 -86 -80 -87 0 -5 -74 -76 -93 -89 -17 -12 18 -14 263 -13 178 1 303 6 334
13 46 11 118 44 170 78 19 12 186 176 186 182 0 1 39 43 88 93 193 200 206
219 190 277 -14 53 -52 77 -127 82 -36 2 -83 4 -103 6 -21 1 -38 -1 -38 -5 0
-4 -7 -5 -15 -1 -24 9 -245 9 -261 0z"/>
<path d="M1595 901 c-3 -6 -13 -9 -23 -9 -9 1 -57 -11 -107 -27 -49 -16 -94
-29 -100 -31 -13 -2 -399 -120 -560 -169 -66 -21 -126 -38 -132 -38 -7 0 -13
-4 -13 -9 0 -4 -3 -7 -7 -6 -16 4 -51 -13 -57 -28 -6 -16 14 -44 98 -132 137
-145 207 -212 215 -207 5 3 12 1 16 -4 3 -6 13 -7 23 -4 19 7 99 63 90 63 -4
0 45 52 108 115 63 64 114 117 114 118 0 2 47 51 104 110 57 59 102 107 101
107 -2 0 30 34 71 75 41 41 74 77 74 80 0 8 -8 6 -15 -4z"/>
</g>
</svg>
