<?xml version="1.0" standalone="no"?>
<!DOCTYPE svg PUBLIC "-//W3C//DTD SVG 20010904//EN"
 "http://www.w3.org/TR/2001/REC-SVG-20010904/DTD/svg10.dtd">
<svg version="1.0" xmlns="http://www.w3.org/2000/svg"
 width="3452.000000pt" height="3452.000000pt" viewBox="0 0 3452.000000 3452.000000"
 preserveAspectRatio="xMidYMid meet">
<metadata>
Created by potrace 1.14, written by Peter Selinger 2001-2017
</metadata>
<g transform="translate(0.000000,3452.000000) scale(0.100000,-0.100000)"
fill="#000000" stroke="none">
<path d="M15770 21824 c-36 -8 -72 -17 -80 -21 -8 -3 -17 -7 -20 -7 -3 -1 -26
-10 -50 -21 -96 -41 -197 -121 -272 -215 -41 -51 -105 -172 -112 -212 -2 -15
-8 -33 -13 -40 -9 -16 -13 -278 -4 -278 4 0 7 -9 8 -20 3 -40 47 -146 82 -200
45 -70 151 -176 216 -217 45 -29 133 -72 160 -80 22 -5 101 -25 120 -29 42
-10 203 -6 260 5 61 12 156 42 165 51 3 3 23 14 45 25 22 11 46 26 53 32 7 7
17 13 21 13 23 0 201 194 201 218 0 5 7 15 15 22 8 7 13 16 10 20 -3 5 -1 11
5 15 26 16 74 249 61 295 -1 3 -4 29 -6 58 -2 29 -11 78 -20 108 -17 60 -76
174 -103 202 -9 10 -33 36 -52 59 -41 47 -149 131 -200 155 -50 24 -93 42
-105 43 -5 1 -17 5 -25 8 -65 27 -258 32 -360 11z"/>
<path d="M29098 21835 c-2 -2 -16 -6 -33 -8 -16 -3 -41 -8 -54 -11 -120 -27
-266 -117 -353 -218 -24 -27 -48 -55 -54 -61 -15 -17 -85 -160 -89 -183 -2
-10 -4 -20 -5 -21 -3 -4 -5 -12 -14 -62 -17 -90 -5 -252 24 -326 56 -145 147
-260 276 -346 40 -27 80 -49 88 -49 9 0 16 -4 16 -10 0 -5 8 -10 18 -10 10 0
22 -4 28 -8 8 -8 80 -27 139 -37 11 -2 20 -4 20 -5 0 -1 34 -2 75 -2 90 -1
159 7 222 26 26 7 49 11 52 8 4 -3 6 0 6 6 0 7 3 11 8 10 26 -7 160 75 231
142 80 76 176 218 185 273 1 7 4 17 8 22 8 14 30 169 29 210 0 21 -13 102 -22
145 -12 54 -86 210 -99 210 -6 0 -10 6 -10 13 0 17 -129 141 -185 179 -22 15
-53 32 -70 40 -16 7 -32 15 -35 18 -5 5 -96 35 -143 47 -24 6 -253 13 -259 8z"/>
<path d="M7035 20950 c-1 -3 -2 -355 -1 -783 1 -427 -1 -777 -4 -778 -3 -1
-225 -2 -495 -3 l-490 -1 -1 -415 c0 -228 1 -420 3 -426 3 -8 138 -11 478 -10
261 0 482 -1 492 -4 17 -5 18 -88 18 -2120 1 -1163 4 -2146 8 -2185 8 -68 21
-155 33 -205 3 -14 7 -38 10 -53 2 -15 8 -37 14 -47 6 -11 8 -20 6 -20 -7 0
39 -123 74 -198 17 -35 30 -67 30 -72 0 -6 3 -10 8 -10 4 0 13 -14 21 -31 12
-27 99 -151 148 -209 66 -80 211 -214 297 -275 16 -11 34 -26 41 -32 8 -7 16
-13 20 -13 3 0 29 -15 58 -33 81 -51 280 -143 352 -161 6 -2 19 -6 30 -10 56
-21 77 -27 155 -45 188 -42 289 -54 475 -54 132 0 370 15 370 23 0 2 9 4 20 5
32 5 94 17 145 30 11 3 30 8 43 11 12 3 27 6 32 8 6 2 24 6 40 10 58 15 85 29
85 45 -1 19 -18 99 -26 121 -4 8 -8 26 -10 40 -1 14 -5 36 -9 50 -3 14 -8 34
-10 45 -3 11 -7 31 -10 45 -4 14 -8 34 -10 45 -2 11 -8 35 -14 54 -6 18 -10
36 -9 40 0 3 -1 8 -2 11 -1 3 -3 14 -5 25 -1 11 -15 70 -30 130 -14 61 -29
121 -31 135 -12 68 -16 87 -26 117 -6 17 -16 29 -22 27 -6 -2 -24 -6 -41 -9
-16 -2 -56 -10 -87 -15 -149 -28 -338 -30 -523 -6 -11 2 -38 7 -60 11 -22 5
-42 9 -45 10 -21 4 -117 40 -127 48 -7 5 -13 6 -13 2 0 -5 -8 -2 -17 6 -10 8
-30 21 -45 28 -49 25 -208 190 -208 216 0 4 -9 19 -20 35 -11 15 -21 36 -23
46 -2 11 -10 33 -16 49 -7 17 -14 37 -16 45 -2 8 -4 17 -5 20 -1 3 -2 9 -1 13
1 4 -3 16 -8 25 -5 10 -13 45 -16 77 -4 33 -9 69 -12 80 -2 11 -6 69 -9 130
-2 60 -7 118 -10 127 -3 10 -2 18 3 18 5 0 8 12 7 28 -1 15 -3 27 -4 27 -6 0
-5 64 1 81 4 12 5 24 2 28 -9 9 -11 76 -1 82 4 3 6 10 2 15 -5 9 -9 311 -4
334 1 6 1 12 0 15 -6 16 -6 68 1 86 4 12 5 24 2 28 -8 8 -11 76 -3 81 5 3 6
50 0 50 -6 0 -4 57 2 61 5 3 5 10 1 17 -10 16 -11 59 -2 83 4 12 5 24 2 28 -8
8 -11 76 -3 81 6 3 6 37 0 55 -2 8 -2 394 0 405 1 6 2 12 1 15 -6 17 -7 81 -1
85 5 3 6 50 0 50 -6 0 -5 65 1 87 4 14 5 29 2 32 -9 9 -12 66 -3 71 5 3 6 50
0 50 -6 0 -5 64 1 81 4 12 5 24 2 28 -9 9 -11 76 -1 82 4 3 6 10 2 15 -5 9 -9
311 -4 334 1 6 1 12 0 15 -6 16 -6 68 1 86 4 12 5 24 2 28 -8 8 -11 76 -3 81
5 3 6 50 0 50 -6 0 -4 57 2 61 5 3 5 10 1 17 -10 16 -11 59 -2 83 4 12 5 24 2
28 -8 8 -11 76 -3 81 6 3 6 37 0 55 -2 8 -2 394 0 405 1 6 2 12 1 15 -6 17 -7
81 -1 85 5 3 6 50 0 50 -6 0 -5 65 1 86 4 15 3 31 -3 37 -6 6 -5 12 3 18 7 4
324 8 703 8 l691 1 0 425 0 425 -690 0 c-379 0 -695 4 -702 8 -8 5 -9 17 -3
36 4 16 6 32 3 35 -9 9 -12 66 -3 71 5 3 6 50 0 50 -6 0 -5 64 1 81 4 12 5 25
2 28 -10 9 -10 70 -1 83 5 6 5 14 -1 17 -7 4 -7 15 -1 30 5 13 6 26 3 30 -8 8
-11 76 -3 81 5 3 6 50 0 50 -6 0 -5 64 1 81 4 12 5 24 2 28 -8 8 -11 76 -3 81
5 3 6 50 0 50 -6 0 -5 64 1 81 4 12 5 25 2 28 -10 9 -10 70 -1 83 5 6 5 14 -1
17 -7 4 -7 15 -1 30 5 13 6 26 3 30 -8 8 -11 76 -3 81 5 3 6 50 0 50 -6 0 -5
64 1 81 4 12 5 25 1 28 -3 4 -6 55 -6 113 l-1 107 -498 1 c-275 0 -500 -2
-502 -5z"/>
<path d="M31990 20950 c-4 -3 -8 -352 -8 -776 1 -424 -2 -775 -5 -780 -3 -5
-222 -9 -494 -9 l-489 1 0 -427 0 -426 489 1 c392 1 491 -2 495 -12 2 -7 6
-975 7 -2150 2 -1175 5 -2153 8 -2172 12 -82 27 -167 36 -198 5 -18 10 -36 11
-40 2 -17 22 -89 31 -112 5 -14 11 -36 14 -49 2 -14 10 -28 17 -33 7 -4 9 -8
5 -8 -5 0 -2 -12 6 -27 7 -16 20 -41 28 -58 25 -50 64 -120 70 -125 3 -3 14
-20 24 -37 11 -18 23 -33 27 -33 4 0 8 -4 8 -10 0 -10 26 -44 63 -82 9 -10 17
-20 17 -23 0 -6 146 -152 186 -185 82 -70 262 -190 284 -190 6 0 10 -5 10 -10
0 -6 3 -9 8 -8 4 1 37 -12 75 -30 37 -18 69 -32 71 -32 3 0 17 -5 33 -12 15
-6 30 -12 33 -13 3 -1 12 -4 20 -8 20 -8 111 -38 130 -42 8 -3 39 -11 68 -19
28 -8 52 -12 52 -9 0 3 7 0 15 -7 8 -7 15 -10 15 -8 0 3 21 1 48 -4 143 -28
400 -44 434 -26 9 4 19 4 22 0 3 -5 17 -7 33 -6 93 7 201 17 218 20 11 3 36 7
55 10 58 10 160 33 257 61 90 25 91 25 83 52 -5 14 -11 40 -14 56 -2 17 -12
62 -21 100 -9 39 -18 77 -20 85 -2 8 -11 47 -20 85 -9 39 -18 77 -19 85 -1 8
-5 26 -9 40 -6 26 -46 201 -53 235 -2 11 -6 31 -9 45 -3 14 -11 49 -19 78 -8
28 -11 52 -8 52 4 0 1 4 -7 9 -7 5 -28 5 -45 0 -54 -14 -126 -26 -211 -34 -78
-8 -267 -8 -325 -1 -25 3 -63 8 -85 10 -67 8 -186 45 -255 78 -56 28 -161 98
-147 98 3 0 -15 21 -39 48 -54 56 -105 144 -138 237 -14 37 -25 70 -24 74 0 3
-1 9 -2 14 -9 27 -26 143 -35 237 -8 76 -8 3990 -1 3997 3 4 318 7 699 7 l692
1 1 415 c0 228 -1 420 -3 425 -2 7 -232 10 -691 10 -378 -1 -691 0 -697 2 -7
2 -9 270 -8 783 1 429 -1 780 -5 781 -26 4 -986 3 -992 -1z"/>
<path d="M13536 19483 c-2 -2 -30 -6 -62 -8 -62 -4 -114 -11 -178 -25 -22 -5
-43 -7 -47 -4 -4 2 -10 0 -13 -5 -4 -5 -25 -12 -49 -16 -54 -9 -271 -85 -275
-96 -2 -5 -9 -9 -17 -9 -16 0 -87 -33 -150 -71 -27 -16 -61 -35 -75 -42 -14
-6 -27 -14 -30 -17 -3 -3 -34 -26 -70 -51 -35 -24 -75 -53 -88 -64 -60 -49
-182 -164 -182 -170 0 -2 -12 -17 -27 -33 -38 -40 -62 -69 -102 -127 -19 -28
-37 -52 -40 -55 -4 -3 -19 -30 -34 -60 -16 -30 -37 -71 -47 -90 -22 -42 -45
-97 -54 -126 -4 -14 -13 -20 -29 -18 -12 1 -28 3 -36 3 -9 1 -12 9 -9 26 3 14
1 25 -3 25 -5 0 -5 8 -2 17 4 9 6 42 5 72 -1 31 -2 61 -2 66 -1 6 1 27 2 48 2
21 0 43 -3 49 -4 6 -3 22 1 34 6 14 5 26 -1 29 -5 4 -6 11 -3 17 10 15 10 119
1 125 -4 2 -4 10 0 16 9 15 12 47 4 47 -3 0 -6 11 -6 25 0 14 2 25 5 25 8 0 4
115 -4 128 -4 7 -4 12 1 12 4 0 8 11 8 25 0 14 -2 25 -5 25 -3 0 -5 11 -5 25
0 14 2 25 5 25 8 0 3 110 -5 118 -4 4 -222 7 -486 7 l-479 0 2 -3273 3 -3274
100 1 c55 1 107 2 115 2 66 -2 155 1 161 5 4 2 10 0 13 -5 3 -5 21 -6 40 -1
19 4 37 6 39 3 4 -3 449 -7 517 -4 13 1 15 243 16 2114 0 1161 4 2146 8 2187
11 112 12 119 31 205 14 65 39 143 71 221 35 89 108 223 128 236 6 4 7 8 3 8
-7 0 34 61 53 80 3 3 30 34 60 70 74 87 109 120 220 210 10 8 27 22 37 30 30
25 204 124 274 157 121 57 367 132 388 119 5 -4 11 -2 13 3 6 16 199 34 368
34 115 1 308 -10 320 -18 3 -2 28 -6 55 -9 72 -9 106 -14 140 -20 89 -16 95
-16 96 -4 4 84 0 1000 -5 1005 -3 4 -43 8 -89 11 -120 5 -586 10 -591 5z"/>
<path d="M2398 19465 c-2 -2 -41 -7 -88 -10 -97 -8 -145 -13 -145 -15 0 -1
-13 -3 -30 -5 -36 -5 -116 -17 -130 -21 -5 -1 -26 -5 -45 -9 -19 -3 -71 -15
-115 -27 -44 -11 -87 -22 -95 -23 -8 -2 -16 -4 -17 -5 -2 -2 -7 -4 -13 -5 -5
-1 -12 -4 -15 -5 -3 -1 -9 -4 -15 -5 -5 -1 -12 -4 -15 -5 -3 -1 -9 -4 -15 -5
-5 -1 -12 -4 -15 -5 -3 -1 -8 -3 -12 -4 -25 -6 -94 -30 -130 -47 -24 -10 -46
-19 -49 -19 -14 0 -323 -158 -334 -171 -3 -3 -16 -12 -30 -19 -35 -18 -207
-146 -255 -189 -82 -74 -202 -201 -245 -257 -24 -33 -49 -63 -55 -69 -6 -5
-14 -17 -18 -25 -4 -8 -21 -35 -37 -60 -17 -25 -36 -57 -42 -72 -7 -16 -16
-28 -20 -28 -4 0 -8 -6 -8 -12 -1 -7 -9 -31 -20 -53 -11 -22 -19 -46 -20 -52
0 -7 -3 -13 -8 -13 -6 0 -40 -97 -59 -165 -21 -77 -35 -136 -38 -160 -3 -16
-7 -41 -9 -55 -17 -88 -30 -390 -16 -390 3 0 5 -24 6 -53 2 -169 66 -409 157
-597 18 -36 35 -69 40 -75 4 -5 31 -47 61 -93 78 -120 174 -229 276 -311 25
-20 49 -42 53 -48 4 -7 14 -13 22 -13 7 0 15 -4 17 -9 3 -10 136 -99 201 -135
102 -57 178 -95 252 -125 44 -18 85 -36 90 -40 6 -3 12 -6 15 -7 3 0 12 -3 20
-6 33 -13 196 -70 210 -74 8 -2 38 -10 65 -18 104 -30 232 -64 290 -77 71 -15
74 -16 78 -18 1 -2 13 -4 27 -7 14 -2 54 -12 90 -21 36 -9 72 -17 80 -18 8 -1
33 -7 55 -13 22 -6 49 -13 60 -15 21 -4 51 -11 120 -28 45 -11 53 -13 150 -34
39 -8 77 -18 85 -22 8 -3 25 -6 38 -6 12 0 22 -3 22 -6 0 -4 10 -7 23 -8 12 0
49 -7 82 -16 33 -9 71 -18 85 -21 54 -10 228 -58 276 -76 29 -10 55 -16 58
-13 3 4 6 1 6 -5 0 -7 3 -11 8 -10 8 1 27 -6 92 -35 25 -11 51 -21 58 -23 7
-1 19 -7 26 -13 7 -6 34 -22 60 -36 104 -55 241 -176 303 -265 51 -75 105
-194 118 -260 2 -8 4 -15 5 -15 11 0 17 -243 8 -295 -5 -25 -11 -57 -13 -71
-10 -57 -90 -239 -114 -259 -3 -3 -26 -31 -50 -63 -41 -54 -180 -187 -204
-196 -6 -2 -23 -15 -36 -28 -14 -12 -31 -23 -38 -23 -6 0 -13 -4 -15 -9 -7
-19 -265 -144 -323 -156 -5 -1 -37 -10 -70 -20 -33 -10 -67 -19 -75 -20 -8 -1
-22 -5 -30 -8 -28 -10 -153 -30 -285 -44 -136 -15 -556 -7 -625 12 -8 2 -33 7
-55 10 -23 3 -52 8 -65 11 -14 3 -33 7 -42 8 -10 1 -21 5 -24 9 -4 4 -16 7
-26 7 -39 0 -330 116 -348 139 -3 3 -22 15 -42 26 -21 11 -38 23 -38 27 0 5
-5 8 -11 8 -15 0 -92 64 -162 135 -83 83 -161 191 -216 299 -46 88 -98 213
-107 253 -3 16 -26 86 -30 94 -2 3 -50 -6 -106 -21 -57 -14 -106 -27 -110 -28
-5 -1 -9 -2 -10 -3 -2 0 -10 -2 -18 -4 -8 -2 -25 -6 -37 -9 -13 -3 -31 -8 -40
-10 -10 -2 -47 -12 -83 -21 -36 -9 -74 -18 -85 -19 -12 -1 -25 -5 -31 -9 -6
-3 -21 -8 -35 -11 -50 -10 -71 -15 -89 -21 -10 -3 -28 -8 -41 -10 -12 -2 -58
-14 -103 -26 -81 -21 -110 -28 -134 -33 -26 -5 -32 -21 -20 -61 6 -22 12 -42
13 -45 1 -3 5 -23 10 -44 4 -21 16 -62 26 -90 11 -28 19 -59 19 -68 0 -10 4
-18 9 -18 5 0 11 -13 14 -29 16 -80 198 -422 242 -453 6 -5 7 -8 0 -8 -7 0 -7
-3 0 -8 6 -4 42 -46 82 -93 74 -88 185 -197 264 -259 24 -19 45 -38 47 -42 2
-4 8 -8 13 -8 9 0 67 -37 79 -51 6 -7 108 -67 184 -109 79 -43 276 -131 276
-123 0 4 5 2 12 -5 7 -7 20 -12 30 -12 10 0 18 -5 18 -12 0 -6 3 -9 6 -5 3 3
31 -4 62 -15 99 -34 331 -90 432 -104 19 -2 46 -7 60 -9 270 -51 896 -51 1157
-1 11 3 38 7 59 11 69 10 94 15 156 30 34 8 65 12 70 9 4 -3 8 -1 8 4 0 5 6 9
13 9 20 1 60 11 87 21 14 5 27 9 30 9 7 0 140 42 165 53 11 5 52 21 90 35 86
33 338 158 373 185 13 11 31 20 39 20 7 0 16 7 19 15 4 8 12 15 18 15 7 0 21
8 32 18 10 9 37 29 60 45 22 15 50 36 62 47 12 11 23 20 26 20 3 0 18 12 34
28 16 15 55 52 88 82 102 96 284 318 284 348 0 6 4 12 9 12 5 0 11 8 15 18 3
9 15 31 25 47 36 55 105 207 116 253 3 18 10 32 14 32 4 0 8 6 8 13 0 6 10 47
21 90 12 42 21 80 21 85 -1 4 0 9 1 12 3 9 9 44 14 80 3 19 5 35 6 35 6 0 12
131 12 245 0 152 -8 257 -28 350 -3 14 -8 39 -10 55 -17 90 -136 394 -163 415
-3 3 -15 22 -25 43 -11 20 -23 37 -28 37 -4 0 -8 6 -8 13 0 7 -14 27 -30 45
-17 18 -30 37 -30 41 0 16 -199 208 -276 266 -43 33 -80 63 -82 68 -2 4 -7 7
-12 7 -4 0 -39 20 -77 45 -131 86 -415 217 -598 276 -39 12 -74 24 -80 28 -5
3 -14 6 -20 7 -5 1 -37 9 -70 18 -134 38 -212 58 -245 63 -19 3 -37 9 -38 14
-2 5 -7 7 -11 5 -4 -3 -61 9 -127 26 -119 30 -136 34 -175 43 -11 2 -28 6 -37
9 -9 3 -28 7 -42 10 -14 3 -89 21 -168 41 -78 19 -150 37 -160 39 -9 1 -24 6
-32 9 -22 8 -114 28 -120 26 -3 -1 -15 3 -26 9 -12 6 -34 14 -50 17 -27 5 -60
13 -181 49 -27 7 -73 23 -103 36 -30 12 -57 22 -60 22 -3 0 -20 6 -39 14 -18
8 -35 14 -38 14 -22 0 -279 138 -305 163 -7 8 -19 16 -26 18 -18 6 -127 101
-143 125 -8 12 -31 46 -52 77 -20 31 -38 60 -38 64 0 5 -6 17 -13 28 -12 19
-16 29 -37 105 -18 61 -23 112 -23 215 0 99 12 206 24 223 2 1 3 5 4 10 24
106 123 260 228 356 70 64 181 146 197 146 6 0 11 4 11 8 0 5 19 17 43 28 23
10 44 21 47 24 11 12 185 84 230 95 8 2 40 11 70 20 61 17 103 26 140 30 14 2
25 4 25 5 0 8 166 23 262 24 46 1 83 3 83 6 0 3 28 4 62 3 35 -1 63 -2 63 -3
0 -1 27 -3 60 -5 53 -2 104 -8 195 -20 14 -2 36 -6 50 -10 14 -3 39 -8 55 -11
17 -3 50 -12 75 -21 25 -8 50 -16 55 -17 78 -20 278 -131 380 -211 89 -70 195
-191 285 -324 53 -79 150 -268 150 -293 0 -21 48 -26 68 -6 7 7 12 9 12 6 0
-4 15 -2 33 3 17 6 66 19 107 30 41 11 82 22 90 26 8 3 20 7 26 8 6 2 38 11
70 21 33 9 64 18 69 19 6 1 12 3 15 4 3 2 12 4 20 6 8 2 65 17 125 35 61 17
115 32 120 34 6 1 16 5 23 9 6 5 12 6 12 3 0 -3 18 1 40 9 43 15 42 15 65 15
8 0 15 8 15 18 0 30 -104 273 -165 387 -33 61 -58 113 -57 118 1 4 -2 7 -6 7
-5 0 -28 29 -51 65 -23 36 -48 73 -56 83 -7 9 -35 44 -62 77 -97 122 -238 263
-333 335 -18 14 -38 30 -45 36 -36 36 -190 131 -296 184 -35 17 -72 36 -82 41
-22 12 -147 60 -167 64 -8 2 -16 4 -17 5 -2 2 -6 3 -10 5 -5 1 -15 4 -23 7
-63 22 -232 64 -296 73 -21 4 -52 9 -69 11 -16 3 -43 7 -58 9 -15 2 -44 7 -65
10 -95 14 -176 18 -424 20 -146 2 -268 2 -270 0z"/>
<path d="M20838 19464 c-2 -1 -26 -6 -53 -10 -28 -3 -59 -8 -70 -10 -11 -2
-40 -7 -65 -10 -25 -3 -94 -19 -155 -36 -60 -16 -118 -30 -127 -31 -10 -1 -18
-4 -18 -8 0 -3 -19 -12 -42 -18 -67 -20 -236 -105 -334 -168 -49 -32 -91 -60
-94 -63 -3 -3 -27 -23 -55 -44 -63 -50 -211 -198 -250 -251 -17 -22 -32 -42
-35 -45 -14 -14 -50 -70 -50 -79 0 -5 -4 -11 -8 -13 -16 -6 -85 -135 -142
-265 -23 -51 -24 -51 -64 -49 l-41 2 -2 489 c0 270 -2 499 -2 510 -1 20 -7 20
-483 20 l-483 0 -1 -3272 -1 -3273 46 0 c25 0 78 0 116 -1 39 0 75 0 80 1 6 1
28 1 50 1 22 0 94 -1 160 0 66 0 127 0 135 0 70 -2 155 1 161 5 4 2 10 0 14
-6 4 -6 11 -8 16 -4 6 3 38 5 72 4 34 -1 69 -1 77 -1 8 1 29 1 47 1 l32 1 1
2112 c0 1162 3 2130 5 2152 10 101 21 180 25 180 1 0 3 11 4 25 8 68 64 250
110 353 14 31 25 60 25 64 -1 3 3 9 8 12 4 3 16 22 27 41 23 44 97 161 111
176 5 6 37 45 70 86 33 41 74 86 91 99 18 13 30 27 27 32 -2 4 -1 7 4 7 4 0
28 18 53 41 101 91 294 205 438 260 92 34 168 53 294 73 15 3 32 7 38 11 5 3
10 2 10 -4 0 -7 8 -7 23 -2 27 10 228 9 244 -2 6 -4 14 -3 18 3 4 6 11 8 16 5
5 -3 23 -8 41 -10 54 -6 111 -16 153 -27 36 -9 57 -14 90 -21 6 -2 15 -5 20
-8 6 -4 22 -9 37 -13 56 -13 255 -115 290 -149 7 -7 25 -20 40 -30 75 -48 245
-234 296 -326 8 -13 22 -39 33 -58 21 -38 76 -177 82 -208 2 -11 7 -27 10 -35
7 -17 23 -101 33 -175 4 -27 8 -1086 8 -2352 1 -1266 4 -2304 6 -2307 5 -5
117 -10 135 -6 6 1 28 1 50 1 22 0 90 -1 150 -1 148 0 215 -1 245 -4 14 -1 29
0 34 3 6 2 28 4 50 3 23 -1 95 -2 161 -1 66 0 137 0 158 -1 l37 -1 1 2198 c0
1209 2 2213 4 2232 8 77 37 249 45 271 1 3 2 8 2 11 -1 4 8 31 19 60 12 30 24
68 29 84 7 29 67 158 93 200 98 163 218 305 325 385 19 14 46 35 60 46 48 38
231 134 256 134 8 0 18 5 21 10 4 6 12 10 18 9 7 -1 26 3 42 10 17 7 41 15 54
17 14 3 28 7 31 9 4 2 20 7 36 9 16 3 40 8 54 11 94 20 180 27 350 28 206 1
307 -13 475 -65 151 -46 340 -142 449 -228 59 -46 151 -142 184 -190 20 -30
40 -57 43 -60 3 -3 16 -27 29 -55 13 -27 26 -52 29 -55 6 -4 49 -120 55 -145
2 -5 8 -28 14 -51 19 -65 36 -158 48 -259 3 -22 7 -1067 8 -2322 1 -1256 5
-2286 8 -2289 5 -5 149 -8 173 -4 6 1 28 1 50 1 22 0 94 -1 160 0 66 0 127 0
135 0 70 -2 155 1 161 5 4 2 10 0 13 -5 4 -6 18 -6 35 -1 16 4 32 6 35 3 6 -6
224 -6 234 1 8 5 7 4474 -2 4618 -3 53 -8 116 -11 140 -3 24 -7 66 -10 93 -4
49 -20 157 -30 205 -3 14 -8 39 -10 55 -3 17 -8 38 -11 47 -5 16 -9 33 -24 98
-29 131 -139 396 -206 502 -16 23 -35 55 -44 70 -49 86 -212 265 -329 358 -23
19 -54 45 -67 58 -13 12 -26 22 -29 22 -4 0 -28 14 -53 32 -83 56 -96 64 -157
96 -94 49 -186 88 -271 117 -90 30 -272 78 -294 77 -8 0 -22 2 -30 5 -8 3 -24
7 -35 8 -11 1 -56 6 -100 11 -44 5 -170 9 -280 9 -199 0 -281 -5 -455 -29 -57
-7 -272 -60 -327 -80 -22 -8 -44 -12 -47 -9 -3 4 -6 0 -6 -7 0 -7 -3 -10 -7
-7 -3 4 -12 2 -20 -4 -7 -6 -13 -9 -13 -6 0 12 -218 -90 -309 -145 -34 -21
-66 -38 -70 -38 -5 0 -16 -9 -26 -20 -10 -11 -22 -20 -27 -20 -8 0 -144 -102
-188 -141 -51 -46 -178 -169 -173 -169 2 0 -6 -11 -19 -23 -59 -61 -202 -266
-239 -345 -28 -59 -24 -55 -63 -58 -32 -3 -34 -1 -79 84 -63 120 -165 285
-187 302 -4 3 -11 12 -16 21 -14 27 -124 148 -189 210 -163 155 -356 281 -545
356 -49 20 -191 65 -215 68 -11 2 -21 4 -22 5 -4 3 -12 5 -63 14 -25 5 -54 10
-65 13 -11 2 -40 6 -65 9 -25 3 -56 7 -70 11 -26 6 -507 13 -512 7z"/>
<path d="M15416 19380 c-2 -3 -2 -1474 -2 -3270 l1 -3265 30 -5 c17 -3 46 -3
65 0 19 4 47 3 63 -1 16 -4 27 -3 27 2 0 6 5 7 10 4 6 -4 190 -7 408 -7 l397
0 0 51 c0 28 4 51 8 51 4 0 3 9 -3 19 -7 14 -7 22 0 26 8 5 7 11 -1 21 -9 11
-9 14 0 14 9 0 9 5 1 20 -6 11 -7 20 -2 20 5 0 6 18 2 40 -4 22 -3 40 2 40 5
0 4 9 -2 20 -6 11 -7 20 -2 20 4 0 5 27 2 60 -3 33 -2 60 2 60 5 0 4 9 -2 20
-6 11 -7 20 -2 20 5 0 6 18 2 40 -4 22 -3 40 2 40 5 0 4 9 -2 19 -7 14 -7 22
0 26 8 5 7 11 -1 21 -9 11 -9 14 0 14 9 0 9 5 1 20 -6 11 -7 20 -3 20 4 0 6
36 3 80 -3 44 -1 80 3 80 4 0 3 9 -3 20 -6 11 -7 20 -3 20 4 0 6 36 3 80 -3
44 -1 80 3 80 4 0 3 9 -3 19 -7 14 -7 22 0 26 8 5 7 11 -1 21 -9 11 -9 14 0
14 9 0 9 5 1 20 -6 11 -7 20 -3 20 4 0 6 36 3 80 -3 44 -1 80 3 80 4 0 3 9 -3
20 -6 11 -7 20 -3 20 4 0 6 63 3 140 -3 77 -1 140 3 140 4 0 3 9 -3 20 -6 11
-7 20 -3 20 4 0 6 63 3 140 -3 77 -1 140 3 140 4 0 3 9 -3 20 -6 11 -7 20 -3
20 4 0 6 63 3 140 -3 77 -1 140 3 140 4 0 3 9 -3 20 -6 11 -7 20 -3 20 4 0 6
36 3 80 -3 44 -1 80 3 80 4 0 3 9 -3 19 -7 14 -7 22 0 26 8 5 7 11 -1 21 -9
11 -9 14 0 14 9 0 9 5 1 20 -6 11 -7 20 -3 20 4 0 6 36 3 80 -3 44 -1 80 3 80
4 0 3 9 -3 20 -6 11 -7 20 -3 20 4 0 6 36 3 80 -3 44 -1 80 3 80 4 0 3 9 -3
19 -7 14 -7 22 0 26 8 5 7 11 -1 21 -9 11 -9 14 0 14 9 0 9 5 1 20 -6 11 -7
20 -2 20 5 0 6 18 2 40 -4 22 -3 40 2 40 5 0 4 9 -2 20 -6 11 -7 20 -2 20 4 0
5 27 2 60 -3 33 -2 60 2 60 5 0 4 9 -2 20 -6 11 -7 20 -2 20 5 0 6 18 2 40 -4
22 -3 40 2 40 5 0 4 9 -2 19 -7 14 -7 22 0 26 8 5 7 11 -1 21 -9 11 -9 14 0
14 9 0 9 5 1 20 -6 11 -7 20 -3 20 4 0 6 36 3 80 -3 44 -1 80 3 80 4 0 3 9 -3
20 -6 11 -7 20 -3 20 4 0 6 36 3 80 -3 44 -1 80 3 80 4 0 3 9 -3 19 -7 14 -7
22 0 26 8 5 7 11 -1 21 -9 11 -9 14 0 14 9 0 9 5 1 20 -6 11 -7 20 -2 20 5 0
6 18 2 40 -4 22 -3 40 2 40 5 0 4 9 -2 20 -6 11 -7 20 -2 20 4 0 5 27 2 60 -3
33 -2 60 2 60 5 0 4 9 -2 20 -6 11 -7 20 -2 20 5 0 6 18 2 40 -4 22 -3 40 2
40 5 0 4 9 -2 19 -7 14 -7 22 0 26 8 5 7 11 -1 21 -9 11 -9 14 0 14 9 0 9 5 1
20 -6 11 -7 20 -3 20 4 0 6 36 3 80 -3 44 -1 80 3 80 4 0 3 9 -3 20 -6 11 -7
20 -3 20 4 0 6 36 3 80 -3 44 -1 80 3 80 4 0 3 9 -3 19 -7 14 -7 22 0 26 8 5
7 11 -1 21 -9 11 -9 14 0 14 9 0 9 5 1 20 -6 11 -7 20 -3 20 4 0 6 36 3 80 -3
44 -1 80 3 80 4 0 3 9 -3 20 -6 11 -7 20 -3 20 4 0 6 63 3 140 -3 77 -1 140 3
140 4 0 3 9 -3 20 -6 11 -7 20 -3 20 4 0 6 63 3 140 -3 77 -1 140 3 140 4 0 3
9 -3 20 -6 11 -7 20 -3 20 4 0 6 63 3 140 -3 77 -1 140 3 140 4 0 3 9 -3 20
-6 11 -7 20 -3 20 4 0 6 63 3 140 -3 77 -1 140 3 140 4 0 3 9 -3 20 -7 13 -7
20 -1 20 7 0 7 9 2 23 l-8 22 -497 0 c-274 0 -499 -2 -500 -5z"/>
<path d="M28700 19380 c-4 -3 -8 -1437 -8 -3273 0 -3039 1 -3267 16 -3268 13
0 724 1 777 2 6 0 51 -1 102 -2 50 0 96 2 101 5 6 3 9 1276 8 3273 l-1 3268
-493 0 c-271 0 -497 -2 -502 -5z"/>
</g>
</svg>
